<?xml version="1.0" encoding="utf-8"?>
<!-- Generator: Adobe Illustrator 27.6.1, SVG Export Plug-In . SVG Version: 6.00 Build 0)  -->
<svg version="1.1" id="Layer_1" xmlns="http://www.w3.org/2000/svg" xmlns:xlink="http://www.w3.org/1999/xlink" x="0px" y="0px"
	 viewBox="0 0 293 320" style="enable-background:new 0 0 293 320;" xml:space="preserve">
<style type="text/css">
	.st0{fill:#7163B7;}
	.st1{fill:#998FCB;}
	.st2{fill:#867AC1;}
</style>
<path class="st0" d="M206,105.5l-41.7-24.9c-13.6-8.1-30.7-7.5-43.7,1.6l-2.3,1.6l28.6,19.5h0c1,0.3,2.1,0.7,3,1.3l41.7,24.9
	c3,1.8,5,4.7,5.7,8.1c0,0,0,0,0,0c0.1,0.8,0.2,1.5,0.2,2.3v18c0,5.3-3.4,9.9-8.4,11.5l-70,23.1c0,0,0,0-0.1,0l-0.9,0.3v29.5l9.7-3.2
	l70-23.1c16.5-5.4,27.6-20.8,27.6-38.1v-18C225.5,125.9,218,112.7,206,105.5L206,105.5z M206,105.5l-41.7-24.9
	c-13.6-8.1-30.7-7.5-43.7,1.6l-2.3,1.6l28.6,19.5h0c1,0.3,2.1,0.7,3,1.3l41.7,24.9c3,1.8,5,4.7,5.7,8.1c0,0,0,0,0,0
	c0.1,0.8,0.2,1.5,0.2,2.3v18c0,5.3-3.4,9.9-8.4,11.5l-70,23.1c0,0,0,0-0.1,0l-0.9,0.3v29.5l9.7-3.2l70-23.1
	c16.5-5.4,27.6-20.8,27.6-38.1v-18C225.5,125.9,218,112.7,206,105.5L206,105.5z M197.3,137.6C197.3,137.6,197.3,137.6,197.3,137.6
	c0.1,0.8,0.2,1.6,0.2,2.3v18c0,5.3-3.4,9.9-8.4,11.5l-70,23.1c0,0,0,0-0.1,0l-0.9,0.3v29.5l9.7-3.2l70-23.1
	c16.5-5.4,27.6-20.8,27.6-38.1v-1.1L197.3,137.6L197.3,137.6z M206,105.5l-41.7-24.9c-13.6-8.1-30.7-7.5-43.7,1.6l-2.3,1.6
	l28.6,19.5h0c1,0.3,2.1,0.7,3,1.3l41.7,24.9c3,1.8,5,4.7,5.7,8.1c0,0,0,0,0,0c0.1,0.8,0.2,1.5,0.2,2.3v18c0,5.3-3.4,9.9-8.4,11.5
	l-70,23.1c0,0,0,0-0.1,0l-0.9,0.3v29.5l9.7-3.2l70-23.1c16.5-5.4,27.6-20.8,27.6-38.1v-18C225.5,125.9,218,112.7,206,105.5
	L206,105.5z M206,105.5l-41.7-24.9c-13.6-8.1-30.7-7.5-43.7,1.6l-2.3,1.6l28.6,19.5h0c1,0.3,2.1,0.7,3,1.3l41.7,24.9
	c3,1.8,5,4.7,5.7,8.1c0,0,0,0,0,0c0.1,0.8,0.2,1.5,0.2,2.3v18c0,5.3-3.4,9.9-8.4,11.5l-70,23.1c0,0,0,0-0.1,0l-0.9,0.3v29.5l9.7-3.2
	l70-23.1c16.5-5.4,27.6-20.8,27.6-38.1v-18C225.5,125.9,218,112.7,206,105.5L206,105.5z M268.6,75L167.7,12
	c-13-8.1-29.3-8.2-42.3-0.1L66.1,48.4h0L25.6,73.3C13.6,80.7,6.5,93.5,6.5,107.5v120.6c0,7.3,3.5,14.2,9.5,18.5
	c5.9,4.3,13.6,5.4,20.5,3.1l26.3-8.8l-0.1,3.7c-0.2,13.5,6.3,26.2,17.5,33.8l42.3,28.8c6.8,4.6,14.7,7,22.6,7c7,0,13.9-1.8,20.1-5.4
	l25.6-14.9l76.6-44.4c12.4-7.2,20-20.5,20-34.8V109.1C287.5,95.2,280.4,82.4,268.6,75L268.6,75z M259.5,214.8
	c0,4.3-2.3,8.4-6.1,10.5l-88.2,51.1l-14,8.1c-4,2.3-9.1,2.1-12.9-0.5L96,255.3c-3.4-2.3-5.4-6.1-5.3-10.2l0.1-3.8h0L91,226l0.5-30.9
	l0.8-52.7c0.1-3.9,2-7.5,5.2-9.8l39.2-27.6c2.1-1.5,4.5-2.2,7-2.2c1.1,0,2.1,0.1,3.1,0.4c0,0,0,0,0.1,0h0c1,0.3,2.1,0.7,3,1.3
	l41.7,24.9c3,1.8,5,4.7,5.7,8.1c0,0,0,0,0,0c0.1,0.8,0.2,1.5,0.2,2.3v18c0,5.3-3.4,9.9-8.4,11.5l-70,23.1c0,0,0,0-0.1,0l-0.9,0.3
	v29.5l9.7-3.2l70-23.1c16.5-5.4,27.6-20.8,27.6-38.1v-18c0-14.1-7.5-27.3-19.5-34.5l-41.7-24.9c-13.6-8.1-30.7-7.5-43.7,1.6
	l-2.3,1.6l0,0l-36.9,25.9c-10.5,7.4-16.9,19.4-17.1,32.2l-1,65.1l-0.1,4.1l-28.7,9.6V107.5c0-4.2,2.2-8.1,5.8-10.4l51.1-31.5h0
	l48.6-30c4-2.4,8.9-2.4,12.8,0l100.9,63.1c3.6,2.2,5.7,6.1,5.7,10.3L259.5,214.8L259.5,214.8z M206,105.5l-41.7-24.9
	c-13.6-8.1-30.7-7.5-43.7,1.6l-2.3,1.6l28.6,19.5h0c1,0.3,2.1,0.7,3,1.3l41.7,24.9c3,1.8,5,4.7,5.7,8.1c0,0,0,0,0,0
	c0.1,0.8,0.2,1.5,0.2,2.3v18c0,5.3-3.4,9.9-8.4,11.5l-70,23.1c0,0,0,0-0.1,0l-0.9,0.3v29.5l9.7-3.2l70-23.1
	c16.5-5.4,27.6-20.8,27.6-38.1v-18C225.5,125.9,218,112.7,206,105.5L206,105.5z M197.3,137.7c0.1,0.8,0.2,1.5,0.2,2.3v18
	c0,5.3-3.4,9.9-8.4,11.5l-70,23.1c0,0,0,0-0.1,0l-0.9,0.3v29.5l9.7-3.2l70-23.1c16.5-5.4,27.6-20.8,27.6-38.1v-1.1L197.3,137.7
	L197.3,137.7z M197.3,137.6C197.3,137.6,197.3,137.7,197.3,137.6c0.1,0.8,0.2,1.6,0.2,2.3v18c0,5.3-3.4,9.9-8.4,11.5l-70,23.1
	c0,0,0,0-0.1,0l-0.9,0.3v29.5l9.7-3.2l70-23.1c16.5-5.4,27.6-20.8,27.6-38.1v-1.1L197.3,137.6L197.3,137.6z M206,105.5l-41.7-24.9
	c-13.6-8.1-30.7-7.5-43.7,1.6l-2.3,1.6l28.6,19.5h0c1,0.3,2.1,0.7,3,1.3l41.7,24.9c3,1.8,5,4.7,5.7,8.1c0,0,0,0,0,0
	c0.1,0.8,0.2,1.5,0.2,2.3v18c0,5.3-3.4,9.9-8.4,11.5l-70,23.1c0,0,0,0-0.1,0l-0.9,0.3v29.5l9.7-3.2l70-23.1
	c16.5-5.4,27.6-20.8,27.6-38.1v-18C225.5,125.9,218,112.7,206,105.5L206,105.5z M206,105.5l-41.7-24.9c-13.6-8.1-30.7-7.5-43.7,1.6
	l-2.3,1.6l28.6,19.5h0c1,0.3,2.1,0.7,3,1.3l41.7,24.9c3,1.8,5,4.7,5.7,8.1c0,0,0,0,0,0c0.1,0.8,0.2,1.5,0.2,2.3v18
	c0,5.3-3.4,9.9-8.4,11.5l-70,23.1c0,0,0,0-0.1,0l-0.9,0.3v29.5l9.7-3.2l70-23.1c16.5-5.4,27.6-20.8,27.6-38.1v-18
	C225.5,125.9,218,112.7,206,105.5L206,105.5z"/>
<g>
	<path class="st1" d="M206,105.5l-41.7-24.9c-13.6-8.1-30.7-7.5-43.7,1.6l-2.3,1.6l0,0l28.6,19.5c0,0,0,0,0.1,0h0
		c1,0.3,2.1,0.7,3,1.3l41.7,24.9c3,1.8,5,4.7,5.7,8.1c0,0,0,0,0,0l28.2,19.2V140C225.5,125.9,218,112.7,206,105.5L206,105.5z
		 M268.6,75L167.7,12c-13-8.1-29.3-8.2-42.3-0.1L66.1,48.4h0l25.4,17.3h0l48.6-30c4-2.4,8.9-2.4,12.8,0l100.9,63.1
		c3.6,2.2,5.7,6.1,5.7,10.3V180l28,19v-90C287.5,95.1,280.4,82.4,268.6,75z"/>
	<path class="st2" d="M91.4,65.6L91.4,65.6L40.3,97.2c-3.6,2.2-5.8,6.1-5.8,10.4v80l-28-19v-61c0-14,7.1-26.8,19.1-34.2L66,48.4h0
		L91.4,65.6z"/>
	<path class="st2" d="M146.9,103.3C146.9,103.3,146.8,103.3,146.9,103.3c-1.1-0.3-2.1-0.4-3.2-0.4c-2.5,0-4.9,0.7-7,2.2l-39.2,27.6
		c-3.2,2.2-5.1,5.9-5.2,9.8l-0.8,52.7L91,226l-27.7-18.9l1-65.1c0.2-12.8,6.6-24.9,17.1-32.2l36.9-25.9l0,0L146.9,103.3L146.9,103.3
		z"/>
	<path class="st2" d="M225.5,156.8v1.1c0,17.4-11.1,32.7-27.6,38.1l-70,23.1l-9.7,3.2v-29.5l0.9-0.3c0,0,0,0,0.1,0l70-23.1
		c5-1.6,8.4-6.3,8.4-11.5v-18c0-0.8-0.1-1.6-0.2-2.3c0,0,0,0,0,0L225.5,156.8L225.5,156.8z"/>
	<path class="st2" d="M287.5,199v15.8c0,14.3-7.7,27.6-20,34.8l-76.6,44.4l-25.7-17.5l88.2-51.1c3.7-2.2,6.1-6.2,6.1-10.5V180
		L287.5,199z"/>
</g>
</svg>
