<svg xmlns="http://www.w3.org/2000/svg" width="47" height="48" viewBox="0 0 47 48" fill="none">
<path d="M30.5939 17.4427L25.5769 14.4439C23.9415 13.4668 21.8777 13.5426 20.3181 14.6389L20.0365 14.8362L23.483 17.1816H23.4854C23.6106 17.2165 23.7333 17.2671 23.8477 17.3356L28.8646 20.3357C29.222 20.5487 29.4687 20.9061 29.5493 21.308C29.5493 21.3092 29.5493 21.3104 29.5493 21.3128C29.5662 21.4031 29.5758 21.497 29.5758 21.5908V23.7569C29.5758 24.3899 29.1727 24.9483 28.571 25.1456L20.1436 27.923C20.1436 27.923 20.14 27.9243 20.1376 27.9255L20.0329 27.9604V31.5128L21.2002 31.1229L29.6251 28.3466C31.6119 27.692 32.9453 25.8472 32.9453 23.7569V21.5908C32.9453 19.9001 32.0439 18.3104 30.5926 17.4427H30.5939ZM30.5939 17.4427L25.5769 14.4439C23.9415 13.4668 21.8777 13.5426 20.3181 14.6389L20.0365 14.8362L23.483 17.1816H23.4854C23.6106 17.2165 23.7333 17.2671 23.8477 17.3356L28.8646 20.3357C29.222 20.5487 29.4687 20.9061 29.5493 21.308C29.5493 21.3092 29.5493 21.3104 29.5493 21.3128C29.5662 21.4031 29.5758 21.497 29.5758 21.5908V23.7569C29.5758 24.3899 29.1727 24.9483 28.571 25.1456L20.1436 27.923C20.1436 27.923 20.14 27.9243 20.1376 27.9255L20.0329 27.9604V31.5128L21.2002 31.1229L29.6251 28.3466C31.6119 27.692 32.9453 25.8472 32.9453 23.7569V21.5908C32.9453 19.9001 32.0439 18.3104 30.5926 17.4427H30.5939ZM29.5493 21.308C29.5493 21.308 29.5493 21.3104 29.5493 21.3128C29.5662 21.4031 29.5758 21.497 29.5758 21.5908V23.7569C29.5758 24.3899 29.1727 24.9483 28.571 25.1456L20.1436 27.923C20.1436 27.923 20.14 27.9243 20.1376 27.9255L20.0329 27.9604V31.5128L21.2002 31.1229L29.6251 28.3466C31.6119 27.692 32.9453 25.8472 32.9453 23.7569V23.6185L29.5481 21.308H29.5493ZM30.5939 17.4427L25.5769 14.4439C23.9415 13.4668 21.8777 13.5426 20.3181 14.6389L20.0365 14.8362L23.483 17.1816H23.4854C23.6106 17.2165 23.7333 17.2671 23.8477 17.3356L28.8646 20.3357C29.222 20.5487 29.4687 20.9061 29.5493 21.308C29.5493 21.3092 29.5493 21.3104 29.5493 21.3128C29.5662 21.4031 29.5758 21.497 29.5758 21.5908V23.7569C29.5758 24.3899 29.1727 24.9483 28.571 25.1456L20.1436 27.923C20.1436 27.923 20.14 27.9243 20.1376 27.9255L20.0329 27.9604V31.5128L21.2002 31.1229L29.6251 28.3466C31.6119 27.692 32.9453 25.8472 32.9453 23.7569V21.5908C32.9453 19.9001 32.0439 18.3104 30.5926 17.4427H30.5939ZM30.5939 17.4427L25.5769 14.4439C23.9415 13.4668 21.8777 13.5426 20.3181 14.6389L20.0365 14.8362L23.483 17.1816H23.4854C23.6106 17.2165 23.7333 17.2671 23.8477 17.3356L28.8646 20.3357C29.222 20.5487 29.4687 20.9061 29.5493 21.308C29.5493 21.3092 29.5493 21.3104 29.5493 21.3128C29.5662 21.4031 29.5758 21.497 29.5758 21.5908V23.7569C29.5758 24.3899 29.1727 24.9483 28.571 25.1456L20.1436 27.923C20.1436 27.923 20.14 27.9243 20.1376 27.9255L20.0329 27.9604V31.5128L21.2002 31.1229L29.6251 28.3466C31.6119 27.692 32.9453 25.8472 32.9453 23.7569V21.5908C32.9453 19.9001 32.0439 18.3104 30.5926 17.4427H30.5939ZM38.1355 13.7748L25.9885 6.18626C24.4205 5.2067 22.4674 5.20068 20.8933 6.17062L13.7609 10.5666H13.7585L8.88955 13.569C7.4515 14.4547 6.59229 15.9927 6.59229 17.6822V32.1975C6.59229 33.076 7.01828 33.9063 7.73069 34.4201C8.4431 34.9328 9.36489 35.0736 10.1988 34.7956L13.365 33.739L13.3577 34.1807C13.3325 35.8101 14.1207 37.3299 15.4661 38.2469L20.5528 41.7163C21.3675 42.2722 22.3218 42.5526 23.2785 42.5526C24.1148 42.5526 24.9524 42.3384 25.6985 41.9064L28.784 40.1182L37.9983 34.7787C39.4845 33.9171 40.4075 32.3154 40.4075 30.597V17.8736C40.4075 16.196 39.5579 14.6641 38.1355 13.7748ZM37.038 30.597C37.038 31.1168 36.7588 31.6018 36.3087 31.8629L25.6912 38.0159L24.0089 38.9906C23.5252 39.271 22.9138 39.2481 22.4517 38.9328L17.365 35.4635C16.9583 35.1867 16.7188 34.7258 16.7272 34.2336L16.7332 33.7799H16.732L16.7609 31.94L16.8187 28.2239L16.9161 21.8869C16.9234 21.4199 17.1556 20.9807 17.5383 20.7123L22.2556 17.3946C22.5071 17.2189 22.8019 17.1299 23.098 17.1299C23.2243 17.1299 23.3519 17.1467 23.4758 17.1804C23.4782 17.1804 23.4806 17.1804 23.483 17.1816H23.4854C23.6106 17.2165 23.7333 17.2671 23.8477 17.3356L28.8646 20.3357C29.222 20.5487 29.4687 20.9061 29.5493 21.308C29.5493 21.3092 29.5493 21.3104 29.5493 21.3128C29.5662 21.4031 29.5758 21.497 29.5758 21.5908V23.7569C29.5758 24.3899 29.1727 24.9483 28.571 25.1456L20.1436 27.923C20.1436 27.923 20.14 27.9243 20.1376 27.9255L20.0329 27.9604V31.5128L21.2002 31.1229L29.6251 28.3466C31.6119 27.692 32.9453 25.8472 32.9453 23.7569V21.5908C32.9453 19.9001 32.0439 18.3104 30.5926 17.4427L25.5757 14.4439C23.9403 13.4668 21.8765 13.5426 20.3169 14.6389L20.0353 14.8362L20.0329 14.8386L15.5984 17.9566C14.3373 18.8435 13.5707 20.2936 13.5467 21.8351L13.4251 29.6716L13.4179 30.1686L9.96057 31.3226V17.6822C9.96057 17.1708 10.2205 16.7051 10.6561 16.4367L16.809 12.6448H16.8115L22.6599 9.03949C23.1365 8.74586 23.7273 8.74707 24.2027 9.04431L36.3497 16.6329C36.7793 16.9012 37.0368 17.3657 37.0368 17.8736V30.597H37.038ZM30.5939 17.4427L25.5769 14.4439C23.9415 13.4668 21.8777 13.5426 20.3181 14.6389L20.0365 14.8362L23.483 17.1816H23.4854C23.6106 17.2165 23.7333 17.2671 23.8477 17.3356L28.8646 20.3357C29.222 20.5487 29.4687 20.9061 29.5493 21.308C29.5493 21.3092 29.5493 21.3104 29.5493 21.3128C29.5662 21.4031 29.5758 21.497 29.5758 21.5908V23.7569C29.5758 24.3899 29.1727 24.9483 28.571 25.1456L20.1436 27.923C20.1436 27.923 20.14 27.9243 20.1376 27.9255L20.0329 27.9604V31.5128L21.2002 31.1229L29.6251 28.3466C31.6119 27.692 32.9453 25.8472 32.9453 23.7569V21.5908C32.9453 19.9001 32.0439 18.3104 30.5926 17.4427H30.5939ZM29.5505 21.3128C29.5674 21.4031 29.577 21.497 29.577 21.5908V23.7569C29.577 24.3899 29.1739 24.9483 28.5722 25.1456L20.1448 27.923C20.1448 27.923 20.1412 27.9243 20.1388 27.9255L20.0341 27.9604V31.5128L21.2014 31.1229L29.6263 28.3466C31.6131 27.692 32.9465 25.8472 32.9465 23.7569V23.6233L29.5505 21.3128ZM29.5505 21.308C29.5505 21.308 29.5505 21.3104 29.5505 21.3128C29.5674 21.4031 29.577 21.497 29.577 21.5908V23.7569C29.577 24.3899 29.1739 24.9483 28.5722 25.1456L20.1448 27.923C20.1448 27.923 20.1412 27.9243 20.1388 27.9255L20.0341 27.9604V31.5128L21.2014 31.1229L29.6263 28.3466C31.6131 27.692 32.9465 25.8472 32.9465 23.7569V23.6185L29.5493 21.308H29.5505ZM30.5951 17.4427L25.5781 14.4439C23.9427 13.4668 21.8789 13.5426 20.3193 14.6389L20.0377 14.8362L23.4842 17.1816H23.4866C23.6118 17.2165 23.7345 17.2671 23.8489 17.3356L28.8658 20.3357C29.2232 20.5487 29.4699 20.9061 29.5505 21.308C29.5505 21.3092 29.5505 21.3104 29.5505 21.3128C29.5674 21.4031 29.577 21.497 29.577 21.5908V23.7569C29.577 24.3899 29.1739 24.9483 28.5722 25.1456L20.1448 27.923C20.1448 27.923 20.1412 27.9243 20.1388 27.9255L20.0341 27.9604V31.5128L21.2014 31.1229L29.6263 28.3466C31.6131 27.692 32.9465 25.8472 32.9465 23.7569V21.5908C32.9465 19.9001 32.0451 18.3104 30.5939 17.4427H30.5951ZM30.5951 17.4427L25.5781 14.4439C23.9427 13.4668 21.8789 13.5426 20.3193 14.6389L20.0377 14.8362L23.4842 17.1816H23.4866C23.6118 17.2165 23.7345 17.2671 23.8489 17.3356L28.8658 20.3357C29.2232 20.5487 29.4699 20.9061 29.5505 21.308C29.5505 21.3092 29.5505 21.3104 29.5505 21.3128C29.5674 21.4031 29.577 21.497 29.577 21.5908V23.7569C29.577 24.3899 29.1739 24.9483 28.5722 25.1456L20.1448 27.923C20.1448 27.923 20.1412 27.9243 20.1388 27.9255L20.0341 27.9604V31.5128L21.2014 31.1229L29.6263 28.3466C31.6131 27.692 32.9465 25.8472 32.9465 23.7569V21.5908C32.9465 19.9001 32.0451 18.3104 30.5939 17.4427H30.5951Z" fill="#7163B7"/>
<path d="M30.5937 17.4427L25.5768 14.4439C23.9414 13.4668 21.8776 13.5426 20.318 14.6389L20.0364 14.8362L20.034 14.8386L23.4757 17.1804C23.4757 17.1804 23.4805 17.1804 23.4829 17.1816H23.4853C23.6104 17.2165 23.7332 17.2671 23.8475 17.3356L28.8644 20.3357C29.2218 20.5487 29.4685 20.9061 29.5491 21.308C29.5491 21.3092 29.5491 21.3104 29.5491 21.3128L32.9451 23.6233V21.5908C32.9451 19.9001 32.0438 18.3104 30.5925 17.4427H30.5937ZM38.1353 13.7748L25.9883 6.18626C24.4203 5.2067 22.4672 5.20068 20.8932 6.17062L13.7607 10.5666H13.7583L16.8101 12.6448H16.8125L22.661 9.03949C23.1375 8.74586 23.7284 8.74707 24.2037 9.04431L36.3507 16.6329C36.7803 16.9012 37.0378 17.3657 37.0378 17.8736V26.4068L40.4073 28.6992V17.8736C40.4073 16.196 39.5577 14.6641 38.1353 13.7748Z" fill="#998FCB"/>
<path d="M16.8127 12.6437H16.8102L10.6573 16.4367C10.2217 16.7051 9.96177 17.1708 9.96177 17.6822V27.3142L6.59229 25.0217V17.6822C6.59229 15.9927 7.4515 14.4548 8.88955 13.5691L13.7585 10.5678H13.7609L16.8127 12.6437Z" fill="#867AC1"/>
<path d="M23.483 17.1816C23.483 17.1816 23.4782 17.1804 23.4758 17.1804C23.3518 17.1467 23.2243 17.1299 23.0979 17.1299C22.8019 17.1299 22.507 17.2189 22.2555 17.3946L17.5382 20.7124C17.1556 20.9807 16.9233 21.4199 16.9161 21.8869L16.8186 28.2239L16.7609 31.94L13.4263 29.6716L13.5478 21.8351C13.5719 20.2936 14.3384 18.8435 15.5996 17.9566L20.0341 14.8386L20.0365 14.8362L23.483 17.1816Z" fill="#867AC1"/>
<path d="M32.9465 23.6185V23.7569C32.9465 25.8472 31.6132 27.692 29.6264 28.3466L21.2015 31.1228L20.0342 31.5127V27.9603L20.1389 27.9254C20.1389 27.9254 20.1425 27.9242 20.1449 27.923L28.5722 25.1456C29.1739 24.9483 29.577 24.3899 29.577 23.7569V21.5908C29.577 21.4969 29.5674 21.4031 29.5506 21.3128C29.5506 21.3104 29.5506 21.3092 29.5506 21.308L32.9477 23.6185H32.9465Z" fill="#867AC1"/>
<path d="M40.4076 28.6944V30.597C40.4076 32.3154 39.4846 33.9171 37.9985 34.7788L28.7841 40.1182L25.6914 38.0159L36.3089 31.863C36.759 31.6018 37.0381 31.1169 37.0381 30.597V26.402L40.4076 28.6944Z" fill="#867AC1"/>
</svg>